<?xml version="1.0" encoding="UTF-8" standalone="no"?>
<!-- Created with Inkscape (http://www.inkscape.org/) -->

<svg
   xmlns:dc="http://purl.org/dc/elements/1.1/"
   xmlns:cc="http://creativecommons.org/ns#"
   xmlns:rdf="http://www.w3.org/1999/02/22-rdf-syntax-ns#"
   xmlns:svg="http://www.w3.org/2000/svg"
   xmlns="http://www.w3.org/2000/svg"
   xmlns:sodipodi="http://sodipodi.sourceforge.net/DTD/sodipodi-0.dtd"
   xmlns:inkscape="http://www.inkscape.org/namespaces/inkscape"
   id="svg3355"
   version="1.1"
   inkscape:version="0.91 r13725"
   xml:space="preserve"
   width="1040.835"
   height="145.66963"
   viewBox="0 0 1040.8349 145.66963"
   sodipodi:docname="huridocs-logo-inverse.svg"
   inkscape:export-filename="/Users/dani/Downloads/huri/huridocs-logo-text.png"
   inkscape:export-xdpi="190"
   inkscape:export-ydpi="190"><metadata
     id="metadata3361"><rdf:RDF><cc:Work
         rdf:about=""><dc:format>image/svg+xml</dc:format><dc:type
           rdf:resource="http://purl.org/dc/dcmitype/StillImage" /><dc:title></dc:title></cc:Work></rdf:RDF></metadata><defs
     id="defs3359" /><sodipodi:namedview
     pagecolor="#ffffff"
     bordercolor="#666666"
     borderopacity="1"
     objecttolerance="10"
     gridtolerance="10"
     guidetolerance="10"
     inkscape:pageopacity="0"
     inkscape:pageshadow="2"
     inkscape:window-width="1409"
     inkscape:window-height="812"
     id="namedview3357"
     showgrid="false"
     inkscape:zoom="1.0952718"
     inkscape:cx="520.41876"
     inkscape:cy="41.458623"
     inkscape:window-x="0"
     inkscape:window-y="0"
     inkscape:window-maximized="0"
     inkscape:current-layer="g3365"
     fit-margin-top="0"
     fit-margin-left="0"
     fit-margin-right="0"
     fit-margin-bottom="0" /><g
     id="g3363"
     inkscape:groupmode="layer"
     inkscape:label="logo"
     transform="matrix(1.25,0,0,-1.25,0,208.4235)"
     style="display:inline"><g
       id="g3365"
       transform="scale(0.1,0.1)"><path
         d="m 642.379,977.527 c -119.742,30.623 -238.43,15.703 -340.199,-14.894 9.832,-12.559 17.722,-33.465 18.933,-68.25 2.805,-75.039 -28.129,-256.153 -35.847,-300.055 -7.817,-43.937 21.14,-44.93 21.14,-44.93 l 49.946,-12.796 c 78.222,-25.024 185.988,-34.571 185.988,-34.571 64.726,0 77.762,41.61 77.687,74.981 0,9.187 -1.148,17.769 -2.285,24.566 0,0 0,6.293 -12.269,34.723 -12.055,28.32 -31.606,84.156 -23.578,133.012 11.078,69.042 59.808,129.375 128.785,129.375 69.031,0 117.613,-60.333 128.906,-129.375 8.117,-48.856 -11.523,-104.692 -23.656,-133.012 -12.121,-28.43 -12.196,-34.723 -12.196,-34.723 -1.211,-6.797 -2.113,-15.379 -2.113,-24.566 0,-33.371 12.652,-74.981 77.52,-74.981 0,0 72.679,6.379 141.959,22.59 C 993.734,630.691 898.09,912 642.379,977.527"
         style="fill:#c4c2c1;fill-opacity:1;fill-rule:evenodd;stroke:none"
         id="path3367"
         inkscape:connector-curvature="0" /><path
         d="m 1283.32,1261.81 c 0,0 -0.67,-0.06 -1.75,-0.13 -175.6,-96.86 -330.191,-145.49 -461.918,-145.49 -78.211,0 -148.468,17.16 -210.3,51.49 -196.227,108.73 -248.832,355.73 -262.317,455.89 -18.949,-5.94 -32.601,-10.53 -37.137,-11.64 -20.468,-5.18 -14.035,-23.29 -14.035,-23.29 0,0 33.739,-221.62 35.176,-282.05 1.363,-60.33 -19.18,-81.89 -19.18,-81.89 -30.839,-34.45 -64.711,-13.74 -104.207,11.23 -39.406,25.04 -69.707,25.88 -69.707,25.88 C 78.8086,1261.81 0,1201.38 0,1091.91 0,984.664 80.1055,931.363 130.438,929.168 c 125.199,63.758 318.843,131.072 519.816,79.722 271.875,-69.605 372.896,-364.249 401.996,-476.281 4.31,1.282 8.56,2.539 12.82,3.993 l 50.08,12.796 c 0,0 28.8,0.993 21,44.93 -7.73,43.902 -38.66,225.016 -35.85,300.055 2.79,75.008 35.85,86.191 54.87,86.191 19.1,0 33.72,-12.011 48.65,-23.281 14.79,-11.184 33.82,-28.418 83.82,-28.418 50.04,0 133.93,53.516 133.93,163.035 0,109.47 -78.98,169.9 -138.25,169.9"
         style="fill:#ffffff;fill-opacity:1;fill-rule:evenodd;stroke:none"
         id="path3369"
         inkscape:connector-curvature="0" /><path
         d="m 624.945,1195.88 c 125.891,-69.63 291.028,-62.16 492.105,21.67 -2.65,2.11 -5.17,4.34 -7.66,7.15 0,0 -20.39,21.56 -18.95,81.89 1.23,60.43 35.1,282.05 35.1,282.05 0,0 6.45,18.11 -13.96,23.29 -20.53,5.18 -220.459,76.75 -275.396,49.14 -55.11,-27.64 -23.274,-96.56 -23.274,-96.56 0,0 25.613,-55.9 30.317,-97.72 0,0 15.843,-153.31 -126.942,-169.68 l -11.152,0 c -142.863,16.37 -127.024,169.68 -127.024,169.68 4.782,41.82 30.477,97.72 30.477,97.72 0,0 31.836,68.92 -23.426,96.56 -36.387,18.39 -137.316,-7.19 -206.676,-27.91 12.215,-91.04 61.758,-334.96 246.461,-437.28"
         style="fill:#c4c2c1;fill-opacity:1;fill-rule:evenodd;stroke:none"
         id="path3371"
         inkscape:connector-curvature="0" /><path
         d="m 2069.4,1192.06 0,408.46 c 0,11.47 -5.6,17.13 -16.9,17.13 l -160.81,0 c -11.22,0 -16.91,-5.66 -16.91,-17.13 l 0,-1046.95 c 0,-11.488 5.69,-17.218 16.91,-17.218 l 160.81,0 c 11.3,0 16.9,5.73 16.9,17.218 l 0,423.918"
         style="fill:#ffffff;fill-opacity:1;fill-rule:nonzero;stroke:none"
         id="path3373"
         inkscape:connector-curvature="0" /><path
         d="m 2298.21,979.215 203.12,0 c 5.68,0 8.56,5.715 8.56,16.992 l 0,161.643 c 0,11.36 -2.88,17.08 -8.56,17.08 l -520.66,0 c -5.7,0 -8.58,-5.72 -8.58,-17.08 l 0,-161.643 c 0,-11.277 2.88,-16.992 8.58,-16.992 l 210.84,0"
         style="fill:#ffffff;fill-opacity:1;fill-rule:nonzero;stroke:none"
         id="path3375"
         inkscape:connector-curvature="0" /><path
         d="m 2422.89,977.488 0,-423.918 c 0,-11.488 5.61,-17.218 16.97,-17.218 l 160.52,0 c 11.36,0 17.06,5.73 17.06,17.218 l 0,1046.95 c 0,11.47 -5.7,17.13 -17.06,17.13 l -160.52,0 c -11.36,0 -16.97,-5.66 -16.97,-17.13 l 0,-408.46"
         style="fill:#ffffff;fill-opacity:1;fill-rule:nonzero;stroke:none"
         id="path3377"
         inkscape:connector-curvature="0" /><path
         d="m 3542.74,822.996 c 0,-45.781 -7.66,-87.238 -22.96,-124.406 -15.39,-37.231 -36.68,-69.281 -63.98,-96.078 -27.35,-26.942 -60.62,-47.59 -99.95,-61.84 -39.27,-14.313 -82.76,-21.442 -130.66,-21.442 l -83.61,0 c -47.82,0 -91.31,7.129 -130.57,21.442 -39.27,14.25 -72.84,34.898 -100.74,61.84 -27.96,26.797 -49.25,58.847 -64.09,96.078 -14.72,37.168 -22.14,78.625 -22.14,124.406 l 0,777.524 c 0,11.47 5.68,17.13 17.13,17.13 l 160.35,0 c 11.46,0 17.13,-5.66 17.13,-17.13 l 0,-777.524 c 0,-34.316 11.92,-63.488 36,-87.539 24.12,-24.055 53.23,-36.066 87.62,-36.066 l 84.06,0 c 34.32,0 63.2,11.73 86.68,35.234 23.51,23.457 35.18,52.949 35.18,88.371 l 0,777.524 c 0,11.47 5.68,17.13 16.9,17.13 l 160.82,0 c 11.22,0 16.83,-5.66 16.83,-17.13 l 0,-777.524"
         style="fill:#ffffff;fill-opacity:1;fill-rule:nonzero;stroke:none"
         id="path3379"
         inkscape:connector-curvature="0" /><path
         d="m 4271.82,1313.88 c 0,33.18 -12.26,62.05 -36.89,86.62 -24.57,24.67 -53.52,36.93 -86.71,36.93 l -188.72,0 c -11.44,0 -17.13,-5.68 -17.13,-17.1 l 0,-228.27 c 0,-11.43 5.69,-17.13 17.13,-17.13 l 188.72,0 c 33.19,0 62.14,11.98 86.71,35.95 24.63,24.11 36.89,53.28 36.89,87.59 l 0,15.41 z m 211.7,-755.239 c 1.13,-2.243 1.8,-5.071 1.8,-8.493 0,-9.226 -5.76,-13.796 -17.13,-13.796 l -175.9,0 c -5.61,0 -10.84,3.976 -15.31,12.027 l -151.04,435.965 -13.79,10.301 -152.65,0 c -11.44,0 -17.13,-5.762 -17.13,-17.157 l 0,-423.918 c 0,-11.488 -5.68,-17.218 -16.97,-17.218 l -160.83,0 c -11.37,0 -16.89,5.73 -16.89,17.218 l 0,1046.95 c 0,11.47 5.67,17.13 17.04,17.13 l 384.17,0 c 97.93,0 175.39,-28.52 232.15,-85.79 56.99,-57.22 85.41,-135.06 85.41,-233.39 l 0,-17.18 c 0,-40.11 -8.34,-75.87 -24.69,-107.26 -16.54,-31.58 -33.43,-56.98 -50.41,-76.4 -15.99,-14.9 -31.6,-27.5 -46.91,-37.69 -15.39,-10.36 -23.05,-19.55 -23.05,-27.55 l 0,-1.68 162.13,-472.069"
         style="fill:#ffffff;fill-opacity:1;fill-rule:nonzero;stroke:none"
         id="path3381"
         inkscape:connector-curvature="0" /><path
         d="m 4842.08,553.57 c 0,-11.488 -5.71,-17.218 -16.92,-17.218 l -160.84,0 c -11.21,0 -16.97,5.73 -16.97,17.218 l 0,1046.95 c 0,11.47 5.76,17.13 16.97,17.13 l 160.84,0 c 11.21,0 16.92,-5.66 16.92,-17.13 l 0,-1046.95"
         style="fill:#ffffff;fill-opacity:1;fill-rule:nonzero;stroke:none"
         id="path3383"
         inkscape:connector-curvature="0" /><path
         d="m 5596.68,1313.88 c 0,33.18 -12.26,62.05 -36.81,86.62 -24.65,24.67 -53.52,36.93 -86.7,36.93 l -188.79,0 c -11.45,0 -17.21,-5.68 -17.21,-17.1 l 0,-686.623 c 0,-11.414 5.76,-17.129 17.21,-17.129 l 188.79,0 c 34.26,0 63.5,12.043 87.52,36.008 23.94,24.109 35.99,53.262 35.99,87.598 l 0,473.696 z m 194.63,-458.317 c 0,-98.418 -28.49,-176.18 -85.33,-233.383 -57.01,-57.18 -134.37,-85.828 -232.15,-85.828 l -384.24,0 c -11.36,0 -17.05,5.73 -17.05,17.218 l 0,1046.95 c 0,11.47 5.69,17.13 17.05,17.13 l 384.24,0 c 97.78,0 175.14,-28.52 232.15,-85.79 56.84,-57.22 85.33,-135.06 85.33,-233.39 l 0,-442.907"
         style="fill:#ffffff;fill-opacity:1;fill-rule:nonzero;stroke:none"
         id="path3385"
         inkscape:connector-curvature="0" /><path
         d="m 6496.37,1331.01 c 0,35.5 -11.76,64.96 -35.08,88.43 -23.57,23.41 -52.44,35.2 -86.7,35.2 l -84.14,0 c -34.41,0 -63.49,-11.98 -87.44,-36.06 -24.1,-23.98 -36.17,-53.15 -36.17,-87.57 l 0,-508.014 c 0,-34.316 12.07,-63.488 36.17,-87.539 23.95,-24.055 53.03,-36.066 87.44,-36.066 l 84.14,0 c 34.26,0 63.13,11.73 86.7,35.234 23.32,23.457 35.08,52.949 35.08,88.371 l 0,508.014 z m 194.71,-508.014 c 0,-45.781 -7.74,-87.238 -23.13,-124.406 -15.29,-37.231 -36.73,-69.281 -64.02,-96.078 -27.21,-26.942 -60.49,-47.59 -99.82,-61.84 -39.26,-14.313 -82.84,-21.442 -130.67,-21.442 l -83.65,0 c -47.75,0 -91.25,7.129 -130.61,21.442 -39.16,14.25 -72.83,34.898 -100.78,61.84 -27.83,26.797 -49.12,58.847 -63.96,96.078 -14.79,37.168 -22.15,78.625 -22.15,124.406 l 0,508.014 c 0,45.76 7.75,87.33 23.05,124.49 15.31,37.22 36.68,68.9 63.96,95.27 27.44,26.29 60.72,46.91 99.88,61.76 39.36,14.84 82.86,22.33 130.61,22.33 l 83.65,0 c 47.83,0 91.41,-7.49 130.67,-22.33 39.33,-14.85 72.61,-35.47 99.82,-61.76 27.29,-26.37 48.73,-58.05 64.02,-95.27 15.39,-37.16 23.13,-78.73 23.13,-124.49 l 0,-508.014"
         style="fill:#ffffff;fill-opacity:1;fill-rule:nonzero;stroke:none"
         id="path3387"
         inkscape:connector-curvature="0" /><path
         d="m 7565.22,738.883 c 6.74,-3.426 10.23,-8.008 10.23,-13.731 0,-9.168 -6.28,-25.214 -18.78,-48.054 -12.5,-22.926 -33.66,-49.258 -63.23,-78.918 -51.15,-52.731 -124.57,-78.95 -220.15,-78.95 l -83.68,0 c -47.89,0 -91.4,7.129 -130.66,21.442 -39.26,14.25 -72.83,34.898 -100.72,61.84 -27.89,26.797 -49.26,58.847 -63.95,96.078 -14.86,37.168 -22.3,78.625 -22.3,124.406 l 0,508.014 c 0,45.76 7.73,87.33 23.04,124.49 15.4,37.22 36.76,68.9 64.05,95.27 27.36,26.29 60.62,46.91 99.88,61.76 39.26,14.84 82.77,22.33 130.66,22.33 l 83.68,0 c 38.65,0 73.98,-4.55 105.8,-13.71 31.83,-9.16 60.78,-23.47 87.07,-42.93 17.05,-12.59 32.46,-26.32 46.01,-41.18 13.73,-14.9 25.18,-29.2 34.26,-42.92 9.02,-13.73 16.15,-26.3 21.29,-37.76 5.18,-11.45 7.73,-19.45 7.73,-24.02 0,-5.74 -3.49,-10.26 -10.23,-13.76 l -148.54,-73.76 c -2.34,-1.2 -5.15,-1.74 -8.57,-1.74 -5.76,0 -9.77,2.58 -11.89,7.79 -2.43,5.02 -6.37,12.19 -11.98,21.38 -14.86,26.29 -30.78,46.64 -47.83,60.93 -17.13,14.3 -38.1,21.46 -63.12,21.46 l -83.68,0 c -34.18,0 -63.28,-11.98 -87.07,-36.06 -23.94,-23.98 -35.93,-53.15 -35.93,-87.57 l 0,-508.014 c 0,-34.316 11.99,-63.488 35.93,-87.539 23.79,-24.055 52.89,-36.066 87.07,-36.066 l 83.68,0 c 25.02,0 45.7,6.906 62.22,20.605 16.6,13.711 32.21,34.367 46.99,61.817 10.32,21.718 18.72,32.617 25.61,32.617 3.42,0 6.23,-0.594 8.57,-1.727 l 148.54,-73.82"
         style="fill:#ffffff;fill-opacity:1;fill-rule:nonzero;stroke:none"
         id="path3389"
         inkscape:connector-curvature="0" /><path
         d="m 7983.5,1454.64 c -33.05,0 -61.78,-11.79 -86.31,-35.2 -24.41,-23.47 -36.7,-52.93 -36.7,-88.43 0,-20.49 4.87,-37.73 14.55,-51.42 9.63,-13.75 23.05,-26.31 40.1,-37.8 17.05,-11.4 37.91,-22.58 62.29,-33.49 24.57,-10.91 51.54,-23.17 81.19,-36.9 45.55,-20.6 85.02,-42.58 118.61,-66.04 33.56,-23.42 61.47,-48.9 83.65,-76.4 22.23,-27.46 38.66,-58.085 49.57,-91.843 10.77,-33.789 16.23,-71.797 16.23,-114.121 0,-45.781 -7.51,-87.238 -22.2,-124.406 -14.87,-37.231 -36.15,-69.281 -64.14,-96.078 -27.87,-26.942 -61.39,-47.59 -100.71,-61.84 -39.2,-14.313 -82.77,-21.442 -130.58,-21.442 l -68.22,0 c -96.78,0 -170.75,26.86 -221.98,80.641 -28.49,29.75 -48.73,55.789 -60.62,78.106 -11.99,22.265 -17.91,38.007 -17.91,47.175 0,4.602 3.42,8.555 10.23,11.985 l 148.48,73.875 c 2.36,1.086 5.15,1.691 8.57,1.691 5.69,0 10.3,-4.277 13.64,-12.863 3.41,-8.594 9.7,-21.465 18.88,-38.652 9.08,-18.321 23.19,-33.184 42.66,-44.61 19.26,-11.465 38.65,-17.187 58.05,-17.187 l 68.22,0 c 33.04,0 61.76,12.011 86.25,36.066 24.39,24.051 36.68,53.223 36.68,87.539 0,42.324 -16.45,74.695 -49.42,96.992 -33.12,22.285 -77.54,46.621 -133.24,72.938 -46.68,22.864 -87.67,45.464 -122.93,67.874 -35.31,22.27 -64.86,46.31 -88.75,72.02 -23.94,25.72 -41.81,54.61 -53.89,86.66 -11.97,32.02 -17.79,69.25 -17.79,111.53 0,45.76 7.64,87.33 23.03,124.49 15.31,37.22 36.68,68.9 63.96,95.27 27.29,26.29 60.71,46.91 99.91,61.76 39.23,14.84 82.75,22.33 130.64,22.33 l 25.55,0 c 77.38,0 142.32,-18.86 194.63,-56.64 17.13,-12.59 32.2,-26.08 45.23,-40.35 13.11,-14.31 24.55,-28.58 34.2,-42.86 9.61,-14.32 17.05,-27.19 22.19,-38.65 5.15,-11.45 7.67,-19.45 7.67,-24.02 0,-5.74 -3.34,-10.26 -10.17,-13.76 l -148.62,-73.76 c -2.2,-1.2 -5.15,-1.74 -8.49,-1.74 -4.55,0 -7.95,2.34 -10.29,6.9 -2.35,4.54 -6.31,10.83 -11.92,18.88 -15.99,27.41 -32.5,48.62 -49.49,63.48 -17.13,14.84 -38.73,22.3 -64.94,22.3 l -25.55,0"
         style="fill:#ffffff;fill-opacity:1;fill-rule:nonzero;stroke:none"
         id="path3391"
         inkscape:connector-curvature="0" /></g></g></svg>