<?xml version="1.0" encoding="UTF-8" standalone="no"?>
<svg
   xmlns:dc="http://purl.org/dc/elements/1.1/"
   xmlns:cc="http://creativecommons.org/ns#"
   xmlns:rdf="http://www.w3.org/1999/02/22-rdf-syntax-ns#"
   xmlns:svg="http://www.w3.org/2000/svg"
   xmlns="http://www.w3.org/2000/svg"
   xmlns:sodipodi="http://sodipodi.sourceforge.net/DTD/sodipodi-0.dtd"
   xmlns:inkscape="http://www.inkscape.org/namespaces/inkscape"
   height="198.78999"
   width="751.38"
   inkscape:version="1.0 (4035a4fb49, 2020-05-01)"
   sodipodi:docname="red partial logo (name, tagline, illustration).svg"
   id="svg120"
   version="1.1"
   viewBox="0 0 751.38 198.79"
   inkscape:export-filename="C:\Users\L\Desktop\Refreshed Logo PICK ME\red full logo (name + icon + description).png"
   inkscape:export-xdpi="300"
   inkscape:export-ydpi="300">
  <metadata
     id="metadata124">
    <rdf:RDF>
      <cc:Work
         rdf:about="">
        <dc:format>image/svg+xml</dc:format>
        <dc:type
           rdf:resource="http://purl.org/dc/dcmitype/StillImage" />
        <dc:title>Logo + signat</dc:title>
      </cc:Work>
    </rdf:RDF>
  </metadata>
  <sodipodi:namedview
     inkscape:current-layer="svg120"
     inkscape:window-maximized="1"
     inkscape:window-y="-11"
     inkscape:window-x="97"
     inkscape:cy="198.45709"
     inkscape:cx="374.37315"
     inkscape:zoom="1.2732019"
     inkscape:guide-bbox="true"
     showguides="true"
     showgrid="false"
     id="namedview122"
     inkscape:window-height="1046"
     inkscape:window-width="1812"
     inkscape:pageshadow="2"
     inkscape:pageopacity="0"
     guidetolerance="10"
     gridtolerance="10"
     objecttolerance="10"
     borderopacity="1"
     bordercolor="#666666"
     pagecolor="#ffffff"
     inkscape:document-rotation="0">
    <sodipodi:guide
       id="guide126"
       orientation="0,-1"
       position="1062.069,-111.55484" />
    <sodipodi:guide
       id="guide128"
       orientation="1,0"
       position="-49.466468,258.56198" />
    <sodipodi:guide
       id="guide134"
       orientation="1,0"
       position="805.89121,252.37867" />
    <sodipodi:guide
       position="968.96553,391.89345"
       orientation="0,-1"
       id="guide982" />
  </sodipodi:namedview>
  <defs
     id="defs4">
    <style
       id="style2">.cls-1{fill:#1d1e1c;}</style>
  </defs>
  <title
     id="title6">Logo + signat</title>
  <g
     style="fill:#de3c4b;fill-opacity:1"
     transform="translate(-30.567436,11.432564)"
     data-name="Calque 2"
     id="Calque_2">
    <g
       style="fill:#de3c4b;fill-opacity:1"
       data-name="Calque 3"
       id="Calque_3">
      <path
         style="stroke-width:1;stroke-miterlimit:4;stroke-dasharray:none;fill:#de3c4b;fill-opacity:1"
         id="path98"
         d="M 146.56567,11.396292 A 21.830325,21.830325 0 0 0 124.71224,32.44091 v 0 A 32.830221,32.830221 0 0 1 92.914207,65.271131 V 33.242024 A 21.853433,21.853433 0 0 0 49.222748,32.44091 v 87.14414 a 21.838029,21.838029 0 0 0 43.668355,0.80881 v 0 A 32.830221,32.830221 0 0 1 124.71224,87.555934 v 32.029116 a 21.853433,21.853433 0 0 0 43.69144,0.80881 V 33.242024 A 21.845732,21.845732 0 0 0 146.56567,11.396292 Z m -75.489487,9.80593 a 12.047505,12.047505 0 0 1 12.0398,12.039802 V 64.107978 A 32.837924,32.837924 0 0 1 59.044081,32.918496 12.024395,12.024395 0 0 1 71.068476,21.202222 Z M 146.56567,131.62486 A 12.032099,12.032099 0 0 1 134.53356,119.58505 V 88.719088 a 32.845626,32.845626 0 0 1 24.0719,31.189492 12.008991,12.008991 0 0 1 -12.03979,11.71628 z M 158.60546,93.179132 A 42.659259,42.659259 0 0 0 83.115983,120.39386 12.039803,12.039803 0 0 1 59.067192,119.58505 V 59.647935 a 42.666963,42.666963 0 0 0 75.535678,-27.207025 12.032099,12.032099 0 0 1 24.04111,0.7703 z"
         class="cls-1" />
      <path
         style="stroke-width:1;stroke-miterlimit:4;stroke-dasharray:none;fill:#de3c4b;fill-opacity:1"
         id="path100"
         d="m 247.92647,60.064871 c -9.18059,0 -17.13919,3.624191 -22.04803,9.97436 l -0.752,-42.696529 H 202.8173 V 135.65068 h 23.08202 V 95.074353 c 0,-9.556586 5.06552,-15.259205 13.57767,-15.259205 8.51215,0 13.57766,5.702619 13.57766,15.259205 v 40.576327 h 22.97758 V 92.024601 C 275.95912,72.3161 265.21188,60.064871 247.92647,60.064871 Z"
         class="cls-1" />
      <path
         style="stroke-width:1;stroke-miterlimit:4;stroke-dasharray:none;fill:#de3c4b;fill-opacity:1"
         id="path102"
         d="M 396.52877,73.37098 V 62.111964 h -23.08202 v 73.538716 h 23.08202 v -34.15305 c 0,-11.206793 4.72085,-15.770976 16.30364,-15.770976 h 6.51728 V 61.328638 h -0.39688 c -8.95082,0 -16.86764,4.261297 -22.42404,12.042342 z"
         class="cls-1" />
      <rect
         style="stroke-width:1;stroke-miterlimit:4;stroke-dasharray:none;fill:#de3c4b;fill-opacity:1"
         id="rect104"
         height="73.538719"
         width="23.082027"
         y="62.111965"
         x="429.10474"
         class="cls-1" />
      <path
         style="stroke-width:1;stroke-miterlimit:4;stroke-dasharray:none;fill:#de3c4b;fill-opacity:1"
         id="path106"
         d="m 517.44308,70.258562 c -4.78351,-6.454612 -13.09722,-10.444356 -22.03759,-10.444356 -19.11317,0 -32.46106,15.770978 -32.46106,38.351676 0,22.382258 13.65078,38.644118 32.46106,38.644118 9.45214,0 17.4003,-3.89574 22.03759,-10.7368 v 9.67148 h 23.07159 V 27.342702 h -23.07159 z m 0,28.063985 c 0,8.627043 -4.85662,17.922513 -15.52031,17.922513 -7.46771,0 -15.50987,-5.65039 -15.50987,-18.058289 0,-12.219897 8.04216,-17.755406 15.50987,-17.755406 10.66369,-0.04178 15.52031,9.2537 15.52031,17.93296 z"
         class="cls-1" />
      <path
         style="stroke-width:1;stroke-miterlimit:4;stroke-dasharray:none;fill:#de3c4b;fill-opacity:1"
         id="path108"
         d="m 589.41514,60.096204 c -22.49714,0 -38.20545,15.750089 -38.20545,38.299454 0,22.549362 15.60387,38.299452 37.94434,38.299452 22.64337,0 38.47701,-15.75009 38.47701,-38.330785 0,-22.580698 -15.7292,-38.268121 -38.2159,-38.268121 z m 14.72655,38.268121 c 0,12.407895 -7.53039,17.964295 -14.98766,17.964295 -6.99771,0 -14.47587,-4.72085 -14.47587,-17.964295 0,-13.243444 7.61393,-17.964293 14.73698,-17.964293 6.78883,0.03133 14.72655,4.731293 14.72655,17.964293 z"
         class="cls-1" />
      <path
         style="stroke-width:1;stroke-miterlimit:4;stroke-dasharray:none;fill:#de3c4b;fill-opacity:1"
         id="path110"
         d="m 750.94756,90.551946 c -7.46772,-1.827762 -13.35834,-3.258639 -13.35834,-7.603491 0,-3.363083 2.80954,-5.295289 7.6975,-5.295289 5.89061,0 9.64014,5.128179 10.29813,10.204136 v 0.33422 h 21.40049 V 87.763303 C 775.73201,75.0003 766.83342,60.096204 745.92382,60.096204 c -20.71116,0 -29.98575,11.67679 -29.98575,23.249137 0,16.585637 14.45499,20.000939 26.11089,22.737359 7.57216,1.79643 13.57767,3.20642 13.57767,7.63483 0,3.37353 -3.27953,5.54595 -8.35549,5.54595 -5.85928,0 -10.51746,-5.66084 -11.02924,-10.7368 v -0.3551 h -22.67469 v 0.41777 c 1.04443,13.57766 13.21211,28.10576 33.90238,28.10576 17.85984,0 29.86041,-9.18059 29.86041,-22.85225 -0.21933,-16.898968 -14.72654,-20.439604 -26.38244,-23.290914 z"
         class="cls-1" />
      <path
         style="stroke-width:1;stroke-miterlimit:4;stroke-dasharray:none;fill:#de3c4b;fill-opacity:1"
         id="path112"
         d="M 440.67707,54.947136 A 11.154572,11.154572 0 1 0 429.5016,43.792564 11.154572,11.154572 0 0 0 440.67707,54.947136 Z"
         class="cls-1" />
      <path
         style="stroke-width:1;stroke-miterlimit:4;stroke-dasharray:none;fill:#de3c4b;fill-opacity:1"
         id="path114"
         d="m 336.63039,102.40629 c 0.10444,3.36308 -0.41777,8.03171 -3.45708,11.10235 a 12.65856,12.65856 0 0 1 -8.83593,3.20642 11.958788,11.958788 0 0 1 -8.67926,-3.20642 c -2.54842,-2.47531 -3.75997,-6.20395 -3.6033,-11.11279 V 62.111964 h -22.26737 v 43.918516 c 0,7.16483 0.89822,14.72654 7.41549,21.4736 6.01595,6.26661 14.89366,9.30592 27.15533,9.30592 11.97968,0 21.05582,-3.13331 26.99866,-9.30592 6.98728,-7.23794 7.56172,-15.28009 7.56172,-22.89403 V 62.111964 h -22.28826 z"
         class="cls-1" />
      <path
         style="stroke-width:1;stroke-miterlimit:4;stroke-dasharray:none;fill:#de3c4b;fill-opacity:1"
         id="path116"
         d="m 672.66711,80.462698 c 6.26661,0 11.3739,3.759968 13.57766,10.06836 l 0.14622,0.438663 20.40827,-11.008352 -0.17755,-0.344664 c -6.1935,-12.219896 -18.89384,-19.520501 -33.9546,-19.520501 -22.4867,0 -38.19501,15.781422 -38.19501,38.36212 0,22.580696 15.59342,38.351676 37.9339,38.351676 15.12343,0 27.89687,-7.31105 34.17393,-19.54139 l 0.17756,-0.34466 -20.43961,-10.99791 -0.15667,0.43866 c -2.2142,6.26662 -7.31104,10.07881 -13.75521,10.07881 -6.98728,0 -14.46544,-4.72085 -14.46544,-17.985186 0,-13.264332 7.6035,-17.995626 14.72655,-17.995626 z"
         class="cls-1" />
    </g>
  </g>
</svg>
