<svg xmlns="http://www.w3.org/2000/svg" width="2555" height="580"><path fill="#CCC" d="M1738.22 472.6h-301.6l54.2-106.7h193.2l54.2 106.7zm477.85-361.35H1969.5c-29.48 0-53.36-23.9-53.36-53.36 0-29.5 23.88-53.4 53.35-53.4h354.3c-16 0-31.8 7.2-42.3 20.9l-65.5 85.8zm150.1-20.76l.2-.3c2.4-3.2 4.45-6.6 6.07-10.1-1.7 3.6-3.8 7.1-6.27 10.3zm6.27-10.4l.1-.2-.1.1zm4.8-25v-.2.2zm0-.3c-.4-7.4-2.34-14.6-5.7-21.3 3.25 6.4 5.3 13.6 5.7 21.2zm-5.72-21.3l-.1-.2.1.1zM2359.4 18c-1-.88-2-1.7-3.07-2.53-6.53-5-13.88-8.24-21.42-9.82 9.3 1.92 17.7 6.27 24.5 12.35zm-24.63-12.38c-.05-.02-.1-.02-.12-.02 0 0 .07 0 .12.03zm-.35-.08h-.07.07zm166.48 569.93c-29.45 0-53.34-23.88-53.34-53.36V57.9c0-29.48 23.9-53.37 53.35-53.37 29.5 0 53.4 23.9 53.4 53.36v464.2c0 29.5-23.9 53.3-53.3 53.3zM107.45 353.17c0-29.47-23.9-53.36-53.36-53.36-29.5 0-53.4 23.9-53.4 53.4V53.5C.7 24 24.6.1 54.1.1c29.44 0 53.35 23.9 53.35 53.35v299.72zM773 575.5c-3.3 0-6.55-.32-9.72-.9 3.22.6 6.46.9 9.68.9 4.9 0 9.74-.7 14.4-2-4.77 1.36-9.62 2-14.37 2zm-9.75-.9c-.1-.03-.2-.03-.32-.06.1.03.22.03.32.05zm-.32-.06c-.2-.05-.42-.08-.64-.14.2.06.4.1.6.14zm-.7-.14c-5.4-1.1-10.58-3.06-15.4-5.76 1.56.88 3.2 1.68 4.87 2.4 3.44 1.5 7 2.62 10.54 3.36zm25.14-.9c.05 0 .08-.03.1-.03-.02 0-.05.03-.1.03zm5.9-2.03c.05-.03.1-.05.16-.05-.06 0-.1.03-.16.05zm.18-.08c5.98-2.5 11.5-6.1 16.28-10.6-4.62 4.4-10.1 8-16.28 10.5zm-46.77-2.9h-.03.03zm-11.76-9l-.08-.1.08.1zm-.16-.2c-4.4-4.5-8.06-9.9-10.7-16 2.56 5.8 6.16 11.3 10.7 15.9zm86.07-13.6c.37-.8.72-1.6 1.06-2.4l.1-.4-1.2 2.7zm-98.2-6.1L555.48 75.9c-10-27.7 4.37-58.3 32.1-68.3 5.97-2.2 12.08-3.2 18.08-3.2 21.85 0 42.37 13.5 50.2 35.3L777.6 377.6l-53.55 123.16c-5.6 12.8-5.74 26.64-1.44 38.9zm419.7 35.7h-.1.1zm.1 0h.13-.14zm-.38 0h-.18.18zm.72 0h.05-.05zm-1 0h-.2.2zm-.23 0c-2.24-.1-4.5-.3-6.77-.6 2.24.3 4.5.4 6.77.5zm6-.3h.06-.05zm.25-.1h.1-.1zm.2 0h.2-.2zm.2 0c4-.5 8.1-1.4 12.1-2.9.9-.3 1.9-.7 2.8-1.1-4.8 2-9.8 3.4-15 4zm-13.6-.2c-.1 0-.1 0-.2-.1h.1zm-.3-.1h-.1.1zm-.4-.1h-.1zm-10.9-3h-.1zm-.3-.1c-6.9-2.7-12.9-6.7-17.9-11.6 5.1 5 11.2 8.9 17.9 11.5zm40.5-.7h-.1zm15.6-10.3c14.9-14.1 20.8-36.3 13.4-56.8l-49-136L1267.6 39c8.1-21.37 28.4-34.53 49.96-34.53 6.3 0 12.63 1.1 18.85 3.46 27.6 10.4 41.5 41.2 31.1 68.73L1192.2 541c-2.93 7.78-7.52 14.48-13.17 19.87zm-86.8-20.2c0-.1 0-.1-.1-.1v.1zm-.1-.2l-.2-.3v.1l.1.2z"/><path fill="#CCC" d="M1351.6 575.5c-8.14 0-16.4-1.88-24.13-5.8-26.28-13.35-36.76-45.47-23.42-71.75l235.8-464.22c13.34-26.28 45.46-36.76 71.74-23.4 26.2 13.33 36.7 45.45 23.4 71.72l-235.8 464.23c-9.4 18.54-28.2 29.2-47.6 29.2zm617.84-.02c-11.3 0-22.64-3.57-32.33-10.97-23.4-17.8-27.9-51.3-10-74.7l354.5-464.3c17.9-23.4 51.4-27.9 74.8-10s27.9 51.4 10.1 74.8L2012 554.5c-10.5 13.78-26.4 21-42.48 21zM496.87 353.18c0-29.48-23.9-53.37-53.36-53.37s-53.3 23.9-53.3 53.4V53.5C390.2 24 414 .1 443.5.1c29.46 0 53.37 23.9 53.37 53.35v299.72zm645.45 222.32h.1-.1zm-.1 0h-.17.16zm.34 0h.2-.2zm-.7 0h-.08.1zm.96 0h.25-.25zm.25 0c1.5-.03 3-.1 4.48-.26-1.5.15-3 .23-4.48.26zm-1.5 0h-.03.03zm6.03-.26l.2-.03c-.07 0-.15.1-.2.1zm.3-.03h.13l-.13.1zm.3 0h.07l-.06.1zm-13.43-.2h-.08v.1zm-.2 0h-.17.16zm-.28 0h-.3l.2.1zm-.3 0c-3.7-.6-7.4-1.5-10.9-2.9l.3.1c3.5 1.4 7 2.3 10.5 2.8zm-10.9-2.9l-.2-.1.2.1zm40.1-.7h.1c-.1 0-.1.1-.2.1zm.2-.1c5.7-2.5 11-5.9 15.6-10.2-4.5 4.2-9.7 7.7-15.6 10.3zm-58.5-10.9c-5.5-5.3-9.9-12-12.8-19.6 2.7 7.4 7 14.1 12.7 19.7zm-12.8-19.7v-.1.1zm-.2-.4L970.2 202.5l53.52-123.15c5.65-12.86 5.8-26.73 1.46-39L1143.5 368l-51.1 135.3c-4.66 12.35-4.45 25.34-.3 36.84zM1024 37.2l-.1-.25.1.24zm-.1-.25c-2.3-5.4-5.5-10.4-9.45-14.8 3.86 4.3 7.06 9.25 9.47 14.8zM1014.5 22c0-.02-.03-.04-.06-.07l.05.08zm-76.66-2.43c5.26-5.12 11.7-9.22 19.06-11.88 5.65-2.1 11.44-3.1 17.15-3.2-13.5.2-26.5 5.6-36.2 15zm36.23-15.04h.14-.1z"/><path fill="#CCC" d="M1823.26 575.5c-19.47 0-38.2-10.68-47.63-29.22l-37.4-73.67h32.7c29.48 0 53.38-23.8 53.38-53.3 0-29.4-23.9-53.3-53.3-53.3h-87l-96.5-190.2 47.6-93.7c7.9-15.5 7.5-33.2.3-47.7l235.5 463.7c13.4 26.3 2.9 58.4-23.4 71.8-7.7 3.9-16 5.8-24.1 5.8zM1539.53 34.35c2.7-5.53 6.38-10.6 10.93-14.98-4.2 4.04-7.82 8.85-10.6 14.35l-.33.63zm85.18-14.66zm-.3-.4v-.1h.1zm-73.8-.1l.3-.2-.2.2zm73.6-.2l-.1-.2.2.1zm-73.2-.1l.2-.2-.1.1zm73-.2c-3.6-3.4-7.6-6.3-12.2-8.6l-1.6-.8c5.1 2.3 9.8 5.5 13.9 9.3zM1565.9 9l.07-.02c-.02 0-.04 0-.06.03zm.24-.1c6.5-2.86 13.34-4.3 20.08-4.47-6.9.17-13.7 1.7-20 4.46zm20.1-4.5h.26-.3zm737.78 571h-353.8c15.84-.22 31.4-7.42 41.8-21l65.44-85.72H2324c29.48 0 53.36 23.9 53.36 53.37 0 29.44-23.87 53.35-53.35 53.35zm-374.57-3.95h-.1s.05.07.1.07zm-.3-.1c-.03 0-.1-.04-.15-.04.07 0 .13.1.16.1zm-.25-.1c-.05 0-.14 0-.17-.02l.18.07zm-.2-.1c-4.76-2-9.14-4.7-13.05-7.9l1.52 1.2c3.7 2.8 7.5 5 11.5 6.7zm-27.2-25.9l-.05-.1.03.1zm-.08-.2c-2.8-5.8-4.56-12.2-5.07-18.94.48 6.6 2.2 13 5.05 19zm.6-47.2v-.1.1zm.1-.23l.06-.16-.07.16zm.1-.24l.1-.24-.13.25zm.1-.24c1.46-2.72 3.1-5.3 5-7.7l-.24.3c-1.8 2.37-3.4 4.84-4.75 7.4zM248.4 579.9C114.12 579.9.72 476.07.72 353.18c0 29.45 23.9 53.35 53.37 53.35 29.4 0 53.3-23.9 53.3-53.35 0 63.92 65.8 120 140.9 120 36.3 0 73-13.74 100.6-37.7 26.5-23.05 41.1-52.3 41.1-82.3 0 29.45 23.8 53.36 53.3 53.36 29.4 0 53.3-23.9 53.3-53.36.1 122.88-113.7 226.72-248.4 226.72zm514.86-5.3h-.04.03zm-1-.2h-.05.1zm25.2-.93c.06-.03.12-.05.2-.05-.08 0-.14.02-.2.05zm.2-.05c1.15-.35 2.27-.7 3.4-1.1l2.2-.85c-1.84.75-3.7 1.4-5.6 1.95zm5.74-2c0-.03.02-.03.02-.03h-.02zm-46.6-2.78c-.04-.03-.1-.05-.15-.1.05.05.1.07.15.1zm-.18-.1c-4.4-2.48-8.32-5.53-11.73-9.02 3.5 3.57 7.4 6.6 11.7 9zm63.08-7.7c4.6-4.36 8.32-9.5 11.1-15.06-2.88 5.8-6.65 10.83-11.1 15.05zm-74.9-1.4l-.07-.1.08.1zm-10.77-16c-.53-1.2-1.02-2.44-1.44-3.7l.1.46c.4 1.1.8 2.2 1.2 3.23zm98-.38c5.12-11.98 5.9-25.83 1.1-39.04L777.6 377.67 926.04 36.6c2.9-6.6 6.9-12.3 11.8-17.02-14.6 14.15-20.4 36.04-13.04 56.4l45.54 126.35-148.3 340.73z"/><path fill="#999" d="M1436.62 472.6h-32.65c-29.48 0-53.36-23.88-53.36-53.35 0-29.46 23.9-53.36 53.4-53.36h86.9l-54.2 106.7zm887.32-361.35h-107.86l65.47-85.75c10.46-13.7 26.28-20.95 42.28-20.97h.1c3.6 0 7.06.35 10.42 1h.07l.23.07s.07 0 .12.02c.03 0 .1 0 .14.03 7.6 1.58 14.9 4.83 21.5 9.82 1.1.82 2.1 1.65 3.1 2.53 4.9 4.38 9.1 9.64 12.1 15.53l.1.16c3.4 6.6 5.3 13.9 5.7 21.2v.2c.1.9.1 1.8.1 2.7 0 7.8-1.7 15.3-4.7 22.1l-.1.1c-1.6 3.5-3.6 6.9-6.1 10l-.2.2c-9.7 12.6-25 20.7-42.2 20.7zM1142.32 575.5h-.78c-2.26-.06-4.53-.22-6.77-.53-.03-.03-.06-.03-.08-.03-.1 0-.1 0-.2-.03h-.6c-3.5-.5-7.1-1.4-10.6-2.8l-.3-.1h-.3c-6.7-2.6-12.8-6.5-17.9-11.5-5.7-5.5-10-12.3-12.8-19.6l-.1-.1-.1-.2h-.1c-4.1-11.5-4.4-24.5.3-36.8l51.1-135.3 49 136.1c7.4 20.5 1.4 42.7-13.5 56.8-4.6 4.3-9.9 7.8-15.6 10.3h-.1c-.1 0-.1 0-.2.08-.9.4-1.9.8-2.8 1.15-4 1.45-8.1 2.4-12.1 2.84h-.7c-1.5.18-3 .26-4.5.3h-.8zm628.62-102.9h-32.72l-54.2-106.7h86.92c29.47 0 53.37 23.9 53.37 53.35 0 29.47-23.9 53.36-53.3 53.36zM54.1 406.53c-29.5 0-53.37-23.9-53.37-53.35 0-29.48 23.88-53.36 53.36-53.36 29.4 0 53.3 23.88 53.3 53.36 0 29.45-23.9 53.35-53.4 53.35zM772.96 575.5c-3.22 0-6.46-.3-9.68-.9h-.03c-.1-.03-.2-.03-.32-.06-.2-.05-.43-.08-.64-.14h-.1c-3.6-.74-7.1-1.86-10.6-3.36-1.7-.72-3.3-1.52-4.9-2.4l-.2-.1h-.1c-4.3-2.43-8.3-5.45-11.8-9.02l-.2-.16c-4.5-4.64-8.1-10.06-10.7-15.93-.5-1.04-.9-2.13-1.3-3.23l-.2-.45c-4.3-12.25-4.2-26.1 1.4-38.93l53.6-123.15L823 504.02c4.8 13.2 4 27.06-1.1 39.04l-.15.34c-.36.8-.7 1.6-1.08 2.38-2.78 5.57-6.5 10.7-11.1 15.05-4.78 4.53-10.3 8.08-16.28 10.56h-.2c-.8.3-1.5.6-2.2.8-1.1.4-2.3.7-3.4 1.1h-.4c-4.7 1.3-9.5 2-14.4 2z"/><path fill="#E5E5E5" d="M1587.42 175.7l-47.57-93.65c-7.9-15.55-7.45-33.15-.32-47.7l.32-.63c2.8-5.5 6.4-10.3 10.6-14.34l.06-.05.3-.2.2-.14.2-.2c3.6-3.4 7.7-6.3 12.3-8.6L1566 9h.07l.2-.1c6.3-2.8 13.14-4.3 20.08-4.5h1.28c7.8 0 15.5 1.7 22.58 5 .6.2 1.1.5 1.7.8 4.6 2.3 8.7 5.2 12.3 8.5l.2.1.2.1.3.2.1.02.3.3v.02c4.1 3.94 7.6 8.64 10.3 14l.3.55c7.2 14.5 7.6 32.2-.3 47.8l-47.6 93.6zm382.7 399.78h-.63c-7.1 0-14-1.42-20.2-3.95l-.1-.02h-.8c-4-1.7-7.9-3.9-11.5-6.7l-1.6-1.2c-6-4.9-10.8-11-14.2-18h-.1s-.1 0-.1-.1c-2.9-6-4.6-12.4-5.1-19-.1-1.3-.1-2.6-.1-4 0-8.7 2.1-17 5.8-24.2v-.1l.1-.1v-.2c.04 0 .06 0 .06-.1l.14-.2c1.4-2.5 3-5 4.8-7.4l.24-.3c9.74-12.6 25-20.6 42.15-20.6h108l-65.5 85.7c-10.36 13.6-25.93 20.8-41.8 21zM443.5 406.53c-29.48 0-53.35-23.9-53.35-53.35 0-29.48 23.87-53.36 53.36-53.36 29.5 0 53.4 23.88 53.4 53.36 0 29.45-23.9 53.35-53.3 53.35zm526.84-204.2L924.8 75.97c-7.34-20.35-1.55-42.24 13.04-56.4 9.7-9.4 22.7-14.8 36.2-15.04h.96c15.02 0 29.38 6.36 39.46 17.4.03.03.05.05.05.08l.1.1c4 4.4 7.2 9.4 9.5 14.8l.1.3c0 .1.1.1.1.2.4.9.7 1.7 1 2.5l.2.4c4.3 12.3 4.2 26.2-1.4 39l-53.7 123.1z"/></svg>