<?xml version="1.0" encoding="utf-8"?>
<!-- Generator: Adobe Illustrator 17.0.0, SVG Export Plug-In . SVG Version: 6.00 Build 0)  -->
<!DOCTYPE svg PUBLIC "-//W3C//DTD SVG 1.1//EN" "http://www.w3.org/Graphics/SVG/1.1/DTD/svg11.dtd">
<svg version="1.1"
	 id="svg3355" xmlns:dc="http://purl.org/dc/elements/1.1/" xmlns:inkscape="http://www.inkscape.org/namespaces/inkscape" xmlns:svg="http://www.w3.org/2000/svg" xmlns:cc="http://creativecommons.org/ns#" xmlns:rdf="http://www.w3.org/1999/02/22-rdf-syntax-ns#" xmlns:sodipodi="http://sodipodi.sourceforge.net/DTD/sodipodi-0.dtd" sodipodi:docname="uwazi-logo.eps" inkscape:version="0.91 r13725"
	 xmlns="http://www.w3.org/2000/svg" xmlns:xlink="http://www.w3.org/1999/xlink" x="0px" y="0px" width="2555px" height="580px"
	 viewBox="0 0 2555 580" enable-background="new 0 0 2555 580" xml:space="preserve">
<sodipodi:namedview  guidetolerance="10" objecttolerance="10" gridtolerance="10" inkscape:cy="290" inkscape:cx="1277.5" borderopacity="1" inkscape:zoom="0.45675147" bordercolor="#666666" pagecolor="#ffffff" id="namedview3357" showgrid="false" inkscape:window-maximized="0" inkscape:window-y="0" inkscape:window-x="0" inkscape:window-height="859" inkscape:window-width="1445" inkscape:current-layer="layer1" inkscape:pageopacity="0" inkscape:pageshadow="2">
	</sodipodi:namedview>
<g id="layer1" inkscape:groupmode="layer" inkscape:label="c1">
	<path id="path3367" inkscape:connector-curvature="0" fill="#CCCCCC" d="M1738.223,472.612h-301.6l54.202-106.719h193.189
		L1738.223,472.612L1738.223,472.612z"/>
	<path id="path3369" inkscape:connector-curvature="0" fill="#CCCCCC" d="M2216.075,111.251h-246.583
		c-29.469,0-53.347-23.908-53.347-53.361c0-29.481,23.878-53.359,53.347-53.359h354.339c-16.006,0.024-31.82,7.256-42.287,20.966
		L2216.075,111.251z M2366.171,90.494l0.191-0.24c2.421-3.179,4.458-6.568,6.078-10.058
		C2370.734,83.877,2368.626,87.319,2366.171,90.494z M2372.441,80.141c0.035-0.054,0.052-0.082,0.087-0.136
		C2372.493,80.059,2372.476,80.087,2372.441,80.141z M2377.248,55.166c0-0.078-0.017-0.157-0.017-0.211
		C2377.23,55.009,2377.248,55.088,2377.248,55.166z M2377.23,54.926c-0.4-7.332-2.334-14.593-5.695-21.234
		C2374.792,40.123,2376.83,47.323,2377.23,54.926z M2371.518,33.692l-0.087-0.162L2371.518,33.692z M2359.396,18.003
		c-0.993-0.88-2.003-1.709-3.065-2.534c-6.531-4.99-13.881-8.241-21.422-9.818C2344.191,7.574,2352.569,11.919,2359.396,18.003
		L2359.396,18.003z M2334.769,5.625c-0.052-0.028-0.104-0.028-0.122-0.028C2334.664,5.597,2334.717,5.597,2334.769,5.625z
		 M2334.421,5.543h-0.07H2334.421z"/>
	<path id="path3371" inkscape:connector-curvature="0" fill="#CCCCCC" d="M2500.905,575.474c-29.451,0-53.347-23.887-53.347-53.36
		V57.886c0-29.469,23.895-53.355,53.347-53.355c29.469,0,53.364,23.887,53.364,53.355v464.228
		C2554.269,551.587,2530.374,575.474,2500.905,575.474z"/>
	<path id="path3373" inkscape:connector-curvature="0" fill="#CCCCCC" d="M107.446,353.174c0-29.477-23.906-53.359-53.358-53.359
		c-29.483,0-53.361,23.882-53.361,53.359V53.452c0-29.463,23.878-53.355,53.361-53.355c29.452,0,53.358,23.892,53.358,53.355
		V353.174z"/>
	<path id="path3375" inkscape:connector-curvature="0" fill="#CCCCCC" d="M772.99,575.498c-3.281,0-6.54-0.316-9.713-0.908
		c3.227,0.615,6.46,0.908,9.687,0.908c4.882,0,9.738-0.693,14.405-2.002C782.593,574.859,777.739,575.498,772.99,575.498z
		 M763.254,574.59c-0.108-0.025-0.216-0.025-0.324-0.054C763.038,574.565,763.146,574.565,763.254,574.59z M762.93,574.536
		c-0.214-0.049-0.425-0.079-0.639-0.133C762.505,574.457,762.716,574.487,762.93,574.536z M762.237,574.404
		c-5.415-1.117-10.591-3.066-15.394-5.761c1.547,0.879,3.179,1.68,4.857,2.402C755.141,572.539,758.687,573.657,762.237,574.404z
		 M787.369,573.496c0.054,0,0.084-0.024,0.106-0.024C787.452,573.472,787.423,573.496,787.369,573.496z M793.266,571.47
		c0.054-0.025,0.108-0.054,0.162-0.054C793.374,571.416,793.32,571.445,793.266,571.47z M793.452,571.391
		c5.977-2.48,11.498-6.03,16.274-10.566C805.112,565.2,799.644,568.828,793.452,571.391z M746.685,568.535h-0.031H746.685z
		 M734.917,559.517l-0.078-0.078L734.917,559.517z M734.757,559.355c-4.401-4.507-8.059-9.844-10.699-15.928
		C726.622,549.301,730.22,554.716,734.757,559.355z M820.826,545.777c0.376-0.772,0.723-1.573,1.069-2.373l0.157-0.348
		C821.679,543.965,821.256,544.872,820.826,545.777z M722.618,539.746L555.494,75.972c-10.006-27.72,4.378-58.295,32.099-68.281
		c5.976-2.153,12.085-3.175,18.087-3.175c21.849,0,42.367,13.536,50.214,35.279l121.738,337.873L724.058,500.82
		C718.459,513.657,718.321,527.5,722.618,539.746z"/>
	<path id="path3377" inkscape:connector-curvature="0" fill="#CCCCCC" d="M1142.319,575.498h-0.106H1142.319z M1142.423,575.498
		h0.136H1142.423z M1142.052,575.498h-0.186H1142.052z M1142.768,575.498h0.054H1142.768z M1141.782,575.498h-0.209H1141.782z
		 M1141.544,575.498c-2.242-0.054-4.507-0.214-6.778-0.531C1137.007,575.284,1139.278,575.444,1141.544,575.498z M1147.549,575.235
		h0.049H1147.549z M1147.787,575.205h0.108H1147.787z M1148.028,575.181h0.185H1148.028z M1148.266,575.151
		c4.058-0.454,8.141-1.387,12.139-2.828c0.961-0.346,1.923-0.722,2.827-1.122C1158.486,573.233,1153.443,574.565,1148.266,575.151z
		 M1134.688,574.936c-0.054,0-0.078,0-0.132-0.024C1134.61,574.936,1134.635,574.936,1134.688,574.936z M1134.396,574.912
		c-0.031-0.025-0.054-0.025-0.108-0.025C1134.342,574.887,1134.365,574.887,1134.396,574.912z M1134.072,574.859
		c0,0-0.024,0-0.052-0.025C1134.048,574.859,1134.072,574.859,1134.072,574.859z M1123.159,571.924c0,0-0.024,0-0.049-0.024
		C1123.134,571.924,1123.159,571.924,1123.159,571.924z M1122.896,571.816c-6.885-2.695-12.916-6.67-17.906-11.553
		C1110.142,565.308,1116.25,569.229,1122.896,571.816z M1163.394,571.152c0-0.03,0.028-0.03,0.054-0.03
		C1163.422,571.122,1163.394,571.122,1163.394,571.152z M1179.057,560.85c14.884-14.136,20.861-36.285,13.472-56.826l-49.038-136.04
		l124.194-328.937c8.087-21.37,28.389-34.525,49.947-34.525c6.27,0,12.618,1.102,18.834,3.447
		c27.563,10.415,41.488,41.192,31.055,68.778l-175.285,464.229C1189.301,548.765,1184.712,555.464,1179.057,560.85z M1092.265,540.6
		c-0.024-0.052-0.024-0.078-0.052-0.106C1092.241,540.522,1092.241,540.548,1092.265,540.6z M1092.189,540.415
		c-0.03-0.107-0.056-0.185-0.108-0.293l0.024,0.078C1092.133,540.284,1092.159,540.337,1092.189,540.415z"/>
</g>
<g id="layer2" inkscape:groupmode="layer" inkscape:label="c2">
	<path id="path3379" inkscape:connector-curvature="0" fill="#CCCCCC" d="M1351.588,575.489c-8.13,0-16.379-1.866-24.122-5.796
		c-26.275-13.345-36.759-45.464-23.413-71.738l235.795-464.229c13.341-26.273,45.459-36.758,71.74-23.411
		c26.273,13.35,36.752,45.468,23.408,71.739l-235.799,464.227C1389.795,564.815,1371.036,575.489,1351.588,575.489z"/>
	<path id="path3381" inkscape:connector-curvature="0" fill="#CCCCCC" d="M1969.44,575.479c-11.286,0-22.641-3.574-32.325-10.967
		c-23.425-17.875-27.919-51.358-10.032-74.785l354.461-464.229c17.887-23.422,51.361-27.905,74.787-10.028
		s27.901,51.358,10.032,74.785l-354.443,464.229C2001.4,568.247,1985.533,575.479,1969.44,575.479z"/>
	<path id="path3383" inkscape:connector-curvature="0" fill="#CCCCCC" d="M496.865,353.174c0-29.477-23.906-53.359-53.359-53.359
		c-29.483,0-53.359,23.882-53.359,53.359V53.452c0-29.463,23.876-53.355,53.359-53.355c29.453,0,53.359,23.892,53.359,53.355
		L496.865,353.174L496.865,353.174z"/>
	<path id="path3385" inkscape:connector-curvature="0" fill="#CCCCCC" d="M1142.319,575.498h0.105H1142.319z M1142.212,575.498
		h-0.16H1142.212z M1142.559,575.498h0.209H1142.559z M1141.866,575.498h-0.084H1141.866z M1142.822,575.498h0.245H1142.822z
		 M1143.068,575.498c1.493-0.024,2.989-0.107,4.481-0.263C1146.056,575.39,1144.56,575.474,1143.068,575.498z M1141.573,575.498
		h-0.03H1141.573z M1147.598,575.235c0.054,0,0.138-0.03,0.19-0.03C1147.735,575.205,1147.652,575.235,1147.598,575.235z
		 M1147.896,575.205c0.024,0,0.078-0.024,0.132-0.024C1147.974,575.181,1147.949,575.205,1147.896,575.205z M1148.212,575.181
		c0.03-0.03,0.03-0.03,0.054-0.03C1148.242,575.151,1148.242,575.151,1148.212,575.181z M1134.765,574.966
		c-0.024-0.03-0.052-0.03-0.077-0.03C1134.713,574.936,1134.741,574.936,1134.765,574.966z M1134.556,574.912h-0.16H1134.556z
		 M1134.288,574.887c-0.054,0-0.132-0.029-0.216-0.029C1134.156,574.859,1134.234,574.887,1134.288,574.887z M1134.02,574.834
		c-3.708-0.59-7.365-1.547-10.861-2.91c0.108,0.054,0.214,0.079,0.3,0.107C1126.949,573.364,1130.498,574.272,1134.02,574.834
		L1134.02,574.834z M1123.11,571.9c-0.054-0.03-0.136-0.054-0.214-0.084C1122.974,571.846,1123.056,571.87,1123.11,571.9z
		 M1163.232,571.201c0.054-0.025,0.108-0.049,0.162-0.049C1163.34,571.152,1163.286,571.176,1163.232,571.201z M1163.448,571.122
		c5.737-2.48,11.019-5.946,15.609-10.272C1174.6,565.069,1169.37,568.565,1163.448,571.122z M1104.99,560.264
		c-5.493-5.361-9.898-12.007-12.724-19.664C1094.984,547.964,1099.31,554.688,1104.99,560.264z M1092.213,540.494
		c0-0.025,0-0.054-0.024-0.079C1092.213,540.44,1092.213,540.469,1092.213,540.494z M1092.081,540.122l-121.74-337.794
		l53.57-123.154c5.606-12.86,5.739-26.733,1.418-39.004l118.162,327.813l-51.093,135.293
		C1087.73,515.63,1087.944,528.623,1092.081,540.122z M1024.127,37.1l-0.078-0.24L1024.127,37.1z M1024.048,36.859
		c-2.325-5.38-5.498-10.384-9.473-14.785C1018.442,26.347,1021.645,31.309,1024.048,36.859z M1014.492,22.007
		c0-0.024-0.024-0.049-0.049-0.073C1014.468,21.958,1014.468,21.982,1014.492,22.007z M937.842,19.575
		c5.258-5.124,11.69-9.229,19.054-11.885c5.653-2.036,11.444-3.057,17.152-3.165C960.548,4.78,947.553,10.162,937.842,19.575z
		 M974.073,4.526c0.054,0,0.082,0,0.136,0C974.155,4.526,974.127,4.526,974.073,4.526z"/>
</g>
<g id="layer4" inkscape:groupmode="layer" inkscape:label="c3">
	<path id="path3387" inkscape:connector-curvature="0" fill="#CCCCCC" d="M1823.264,575.489c-19.472,0-38.212-10.674-47.634-29.21
		l-37.407-73.666h32.722c29.469,0,53.364-23.891,53.364-53.36c0-29.467-23.895-53.359-53.364-53.359h-86.931l-96.59-190.181
		l47.573-93.661c7.909-15.577,7.446-33.21,0.282-47.765l235.515,463.667c13.341,26.274,2.856,58.394-23.408,71.738
		C1839.635,573.623,1831.38,575.489,1823.264,575.489z M1539.526,34.355c2.71-5.523,6.387-10.61,10.938-14.971
		c-4.213,4.039-7.827,8.849-10.615,14.341L1539.526,34.355L1539.526,34.355z M1624.707,19.697l-0.009-0.005
		C1624.703,19.692,1624.703,19.697,1624.707,19.697z M1624.385,19.384l-0.063-0.063L1624.385,19.384z M1550.513,19.332
		c0.075-0.07,0.146-0.141,0.225-0.211C1550.664,19.19,1550.587,19.262,1550.513,19.332z M1624.108,19.121l-0.138-0.132
		L1624.108,19.121z M1550.87,18.994c0.043-0.038,0.089-0.082,0.132-0.122C1550.958,18.915,1550.913,18.955,1550.87,18.994z
		 M1623.843,18.872c-3.579-3.333-7.676-6.235-12.254-8.558c-0.554-0.28-1.104-0.549-1.662-0.806
		C1614.98,11.855,1619.693,14.995,1623.843,18.872L1623.843,18.872z M1565.776,9.117c0.019-0.01,0.038-0.021,0.059-0.03
		C1565.815,9.096,1565.795,9.101,1565.776,9.117z M1566.011,9.009c6.514-2.856,13.325-4.311,20.073-4.473
		C1579.145,4.716,1572.325,6.25,1566.011,9.009z M1586.114,4.531c0.084,0,0.171,0,0.249-0.005
		C1586.284,4.531,1586.197,4.531,1586.114,4.531z"/>
	<path id="path3389" inkscape:connector-curvature="0" fill="#CCCCCC" d="M2323.936,575.479H1970.12
		c15.849-0.215,31.419-7.417,41.8-20.996l65.451-85.722h246.565c29.486,0,53.364,23.876,53.364,53.358
		C2377.3,551.572,2353.422,575.479,2323.936,575.479z M1949.359,571.529c-0.052,0-0.087-0.024-0.104-0.024
		C1949.272,571.504,1949.307,571.529,1949.359,571.529z M1949.08,571.421c-0.035-0.024-0.087-0.054-0.157-0.054
		C1948.993,571.367,1949.046,571.397,1949.08,571.421z M1948.819,571.314c-0.052-0.024-0.139-0.054-0.174-0.078
		C1948.68,571.26,1948.767,571.289,1948.819,571.314z M1948.61,571.211c-4.755-2.003-9.126-4.698-13.045-7.925
		c0.505,0.425,1.01,0.825,1.55,1.225C1940.738,567.285,1944.604,569.503,1948.61,571.211z M1921.423,545.279
		c-0.035-0.03-0.035-0.054-0.052-0.084C1921.388,545.225,1921.388,545.249,1921.423,545.279z M1921.336,545.087
		c-2.804-5.815-4.528-12.216-5.033-18.968C1916.773,532.685,1918.48,539.111,1921.336,545.087z M1921.963,497.866
		c0-0.029,0.017-0.054,0.017-0.079C1921.98,497.812,1921.963,497.838,1921.963,497.866z M1922.067,497.627l0.07-0.161
		L1922.067,497.627z M1922.189,497.387c0.07-0.082,0.087-0.161,0.139-0.243C1922.276,497.226,1922.259,497.305,1922.189,497.387z
		 M1922.329,497.144c1.446-2.72,3.118-5.307,4.999-7.71l-0.244,0.293C1925.272,492.105,1923.687,494.585,1922.329,497.144z"/>
	<path id="path3391" inkscape:connector-curvature="0" fill="#CCCCCC" d="M248.422,579.903
		c-134.282,0-247.695-103.838-247.695-226.728c0,29.457,23.878,53.359,53.361,53.359c29.452,0,53.358-23.903,53.358-53.359
		c0,63.926,65.874,120.005,140.976,120.005c36.362,0,73.024-13.74,100.582-37.695c26.518-23.052,41.143-52.295,41.143-82.309
		c0,29.457,23.876,53.359,53.359,53.359c29.453,0,53.359-23.903,53.359-53.359C496.865,476.065,383.1,579.903,248.422,579.903z"/>
	<path id="path3393" inkscape:connector-curvature="0" fill="#CCCCCC" d="M763.276,574.59h-0.023H763.276z M762.291,574.404h-0.054
		H762.291z M787.475,573.472c0.078-0.029,0.132-0.054,0.216-0.054C787.607,573.418,787.553,573.442,787.475,573.472z
		 M787.691,573.418c1.146-0.346,2.266-0.693,3.389-1.094c0.718-0.267,1.465-0.561,2.186-0.854
		C791.449,572.216,789.586,572.857,787.691,573.418z M793.428,571.416c0-0.025,0.024-0.025,0.024-0.025
		S793.428,571.391,793.428,571.416z M746.842,568.643c-0.054-0.029-0.103-0.054-0.157-0.107
		C746.74,568.589,746.788,568.614,746.842,568.643z M746.654,568.535c-4.398-2.48-8.323-5.522-11.737-9.018
		C738.413,563.091,742.387,566.109,746.654,568.535z M809.726,560.825c4.591-4.35,8.325-9.472,11.1-15.048
		C817.945,551.568,814.185,556.612,809.726,560.825z M734.839,559.439l-0.082-0.084L734.839,559.439z M724.058,543.427
		c-0.533-1.196-1.015-2.426-1.44-3.681l0.16,0.454C723.178,541.294,723.603,542.387,724.058,543.427z M822.052,543.056
		c5.126-11.977,5.897-25.825,1.122-39.032l-45.542-126.357l148.42-341.076c2.881-6.587,6.907-12.305,11.791-17.016
		c-14.59,14.154-20.381,36.04-13.047,56.396l45.546,126.357C970.341,202.328,822.052,543.056,822.052,543.056z"/>
</g>
<g id="layer3" inkscape:groupmode="layer" inkscape:label="c12">
	<path id="path3395" inkscape:connector-curvature="0" fill="#999999" d="M1436.623,472.612h-32.658
		c-29.472,0-53.359-23.891-53.359-53.36c0-29.467,23.887-53.359,53.359-53.359h86.859L1436.623,472.612L1436.623,472.612z"/>
	<path id="path3397" inkscape:connector-curvature="0" fill="#999999" d="M2323.936,111.251h-107.86l65.469-85.754
		c10.467-13.71,26.281-20.942,42.287-20.966h0.104c3.588,0,7.054,0.347,10.415,1.012h0.07c0.087,0.028,0.139,0.028,0.226,0.054
		c0.017,0,0.07,0,0.122,0.028c0.035,0,0.087,0,0.139,0.026c7.541,1.576,14.891,4.828,21.422,9.818
		c1.062,0.826,2.073,1.655,3.065,2.534c4.911,4.375,9.022,9.633,12.035,15.527l0.087,0.162h0.017
		c3.361,6.641,5.295,13.902,5.695,21.234v0.03c0,0.054,0.018,0.132,0.018,0.211c0.035,0.907,0.052,1.817,0.052,2.724
		c0,7.871-1.707,15.367-4.772,22.115c-0.035,0.054-0.052,0.082-0.087,0.136v0.054c-1.62,3.49-3.657,6.88-6.078,10.058l-0.192,0.24
		C2356.417,103.11,2341.125,111.251,2323.936,111.251L2323.936,111.251z"/>
	<path id="path3399" inkscape:connector-curvature="0" fill="#999999" d="M1142.319,575.498h-0.775
		c-2.266-0.054-4.537-0.214-6.778-0.531c-0.024-0.03-0.052-0.03-0.077-0.03c-0.054,0-0.078,0-0.132-0.024h-0.16
		c-0.031-0.025-0.054-0.025-0.108-0.025c-0.054,0-0.132-0.029-0.216-0.029c0,0-0.024,0-0.052-0.025
		c-3.522-0.561-7.071-1.47-10.561-2.802c-0.085-0.029-0.192-0.054-0.3-0.107c0,0-0.024,0-0.049-0.024
		c-0.054-0.03-0.136-0.054-0.214-0.084c-6.646-2.587-12.754-6.509-17.906-11.553c-5.68-5.576-10.006-12.3-12.724-19.664
		c-0.024-0.052-0.024-0.078-0.052-0.106c0-0.025,0-0.054-0.024-0.079c-0.03-0.078-0.056-0.131-0.084-0.215l-0.024-0.078
		c-4.136-11.5-4.351-24.493,0.317-36.846l51.093-135.293l49.038,136.04c7.39,20.541,1.412,42.69-13.472,56.826
		c-4.589,4.326-9.872,7.792-15.609,10.272c-0.026,0-0.054,0-0.054,0.03c-0.054,0-0.108,0.024-0.162,0.049
		c-0.904,0.4-1.865,0.776-2.827,1.123c-3.999,1.441-8.081,2.374-12.139,2.827c-0.024,0-0.024,0-0.054,0.03h-0.185
		c-0.054,0-0.108,0.024-0.132,0.024h-0.108c-0.052,0-0.136,0.03-0.19,0.03h-0.049c-1.493,0.155-2.989,0.239-4.481,0.263H1142.319
		L1142.319,575.498z"/>
</g>
<g id="layer5" inkscape:groupmode="layer" inkscape:label="c13">
	<path id="path3401" inkscape:connector-curvature="0" fill="#999999" d="M1770.945,472.612h-32.722l-54.209-106.719h86.931
		c29.469,0,53.364,23.892,53.364,53.359C1824.309,448.721,1800.413,472.612,1770.945,472.612L1770.945,472.612z"/>
	<path id="path3403" inkscape:connector-curvature="0" fill="#999999" d="M54.088,406.534c-29.483,0-53.361-23.903-53.361-53.359
		c0-29.477,23.878-53.359,53.361-53.359c29.452,0,53.358,23.882,53.358,53.359C107.446,382.631,83.54,406.534,54.088,406.534z"/>
	<path id="path3405" inkscape:connector-curvature="0" fill="#999999" d="M772.963,575.498c-3.227,0-6.46-0.293-9.687-0.908h-0.023
		c-0.108-0.025-0.216-0.025-0.324-0.054c-0.214-0.049-0.425-0.079-0.639-0.133h-0.054c-3.549-0.746-7.096-1.865-10.537-3.359
		c-1.679-0.723-3.311-1.523-4.857-2.402c-0.054-0.029-0.103-0.054-0.157-0.107h-0.031c-4.267-2.426-8.241-5.444-11.737-9.018
		l-0.16-0.161c-4.537-4.639-8.135-10.054-10.699-15.928c-0.455-1.04-0.88-2.133-1.28-3.228l-0.16-0.454
		c-4.297-12.246-4.159-26.089,1.44-38.926l53.573-123.153l45.542,126.357c4.776,13.207,4.004,27.055-1.122,39.032l-0.157,0.348
		c-0.347,0.8-0.693,1.601-1.069,2.373c-2.774,5.576-6.509,10.698-11.1,15.048c-4.776,4.536-10.297,8.086-16.274,10.566
		c0,0-0.024,0-0.024,0.025c-0.054,0-0.108,0.029-0.162,0.054c-0.721,0.293-1.468,0.586-2.186,0.854
		c-1.123,0.401-2.243,0.748-3.389,1.094c-0.084,0-0.138,0.024-0.216,0.054c-0.023,0-0.052,0.024-0.106,0.024
		C782.701,574.805,777.845,575.498,772.963,575.498L772.963,575.498z"/>
</g>
<g id="layer6" inkscape:groupmode="layer" inkscape:label="c23">
	<path id="path3407" inkscape:connector-curvature="0" fill="#E5E5E5" d="M1587.423,175.713l-47.575-93.661
		c-7.904-15.548-7.451-33.151-0.322-47.697l0.322-0.63c2.788-5.491,6.402-10.302,10.615-14.341c0.016-0.019,0.033-0.038,0.049-0.052
		c0.075-0.07,0.152-0.141,0.225-0.211c0.044-0.044,0.089-0.087,0.132-0.127c0.044-0.038,0.089-0.078,0.132-0.122
		c3.579-3.333,7.676-6.235,12.254-8.558c0.836-0.421,1.676-0.82,2.52-1.197c0.019-0.016,0.038-0.021,0.059-0.03
		c0.059-0.024,0.117-0.051,0.176-0.078c6.313-2.759,13.134-4.293,20.073-4.473c0.01,0,0.021,0,0.03-0.005
		c0.084,0,0.171,0,0.249-0.005c0.341-0.003,0.679-0.003,1.015-0.003c7.811,0,15.518,1.717,22.549,4.985
		c0.557,0.258,1.108,0.526,1.662,0.806c4.579,2.323,8.675,5.225,12.254,8.558l0.127,0.117l0.138,0.132
		c0.073,0.07,0.139,0.132,0.214,0.2l0.063,0.063c0.108,0.103,0.211,0.2,0.313,0.308l0.009,0.005
		c4.072,3.974,7.568,8.677,10.29,14.027l0.282,0.563c7.163,14.555,7.627,32.187-0.282,47.765L1587.423,175.713z"/>
	<path id="path3409" inkscape:connector-curvature="0" fill="#E5E5E5" d="M1970.12,575.479h-0.627
		c-7.106,0-13.916-1.416-20.133-3.95c-0.052,0-0.087-0.024-0.104-0.024l-0.174-0.083c-0.035-0.024-0.087-0.054-0.157-0.054
		c-0.017-0.024-0.052-0.024-0.104-0.054c-0.052-0.024-0.139-0.054-0.174-0.078c0,0-0.035,0-0.035-0.024
		c-4.006-1.709-7.872-3.926-11.495-6.7c-0.54-0.4-1.045-0.8-1.55-1.225c-5.922-4.883-10.781-11.021-14.142-18.008
		c-0.035-0.03-0.035-0.054-0.052-0.084c0-0.024-0.035-0.054-0.035-0.107c-2.856-5.976-4.563-12.402-5.033-18.968
		c-0.104-1.304-0.157-2.667-0.157-4c0-8.75,2.107-16.996,5.817-24.252c0-0.029,0.017-0.054,0.017-0.079l0.087-0.16l0.07-0.161
		c0.035-0.025,0.052-0.054,0.052-0.079c0.07-0.082,0.087-0.161,0.139-0.243c1.359-2.559,2.943-5.039,4.755-7.418l0.244-0.293
		c9.753-12.592,25.01-20.673,42.165-20.673h107.878l-65.451,85.722C2001.539,568.062,1985.969,575.264,1970.12,575.479z"/>
	<path id="path3411" inkscape:connector-curvature="0" fill="#E5E5E5" d="M443.506,406.534c-29.483,0-53.359-23.903-53.359-53.359
		c0-29.477,23.876-53.359,53.359-53.359c29.453,0,53.359,23.882,53.359,53.359C496.865,382.631,472.959,406.534,443.506,406.534
		L443.506,406.534z"/>
	<path id="path3413" inkscape:connector-curvature="0" fill="#E5E5E5" d="M970.341,202.328L924.795,75.972
		c-7.334-20.356-1.543-42.242,13.047-56.396c9.711-9.414,22.706-14.795,36.205-15.05h0.026c0.054,0,0.082,0,0.136,0
		c0.263-0.003,0.507-0.003,0.772-0.003c15.02,0,29.375,6.371,39.462,17.411c0.024,0.024,0.049,0.049,0.049,0.073
		c0.03,0.024,0.054,0.049,0.084,0.068c3.974,4.401,7.148,9.405,9.473,14.785l0.078,0.24c0.023,0.054,0.054,0.108,0.077,0.185
		c0.348,0.831,0.669,1.656,0.991,2.51l0.134,0.376c4.321,12.272,4.189,26.144-1.418,39.004L970.341,202.328L970.341,202.328z"/>
</g>
</svg>
